<svg width="44" height="36" viewBox="0 0 44 36" fill="none" xmlns="http://www.w3.org/2000/svg">
<rect width="43.1585" height="35.9654" rx="12" fill="#4153EF"/>
<path d="M19.2065 19.6437C19.2065 20.5643 19.9184 21.3046 20.7915 21.3046H22.5758C23.3351 21.3046 23.952 20.6592 23.952 19.8525C23.952 18.9888 23.5723 18.6756 23.0124 18.4763L20.1556 17.4798C19.5957 17.2805 19.216 16.9768 19.216 16.1036C19.216 15.3064 19.8329 14.6515 20.5922 14.6515H22.3765C23.2497 14.6515 23.9615 15.3918 23.9615 16.3124M21.5793 13.7119V22.2537" stroke="#F5F5F5" stroke-width="1.5" stroke-linecap="round" stroke-linejoin="round"/>
<path d="M31.0701 17.9828C31.0701 23.2218 26.8182 27.4737 21.5793 27.4737C16.3403 27.4737 12.0884 23.2218 12.0884 17.9828C12.0884 12.7439 16.3403 8.49194 21.5793 8.49194M31.0701 12.2883V8.49194M31.0701 8.49194H27.2738M31.0701 8.49194L26.3247 13.2374" stroke="#F5F5F5" stroke-width="1.5" stroke-linecap="round" stroke-linejoin="round"/>
</svg>
