<svg width="29" height="28" viewBox="0 0 29 28" fill="none" xmlns="http://www.w3.org/2000/svg">
<path d="M14.5 0L27.0574 7V21L14.5 28L1.94263 21V7L14.5 0Z" fill="#4153EF"/>
<path d="M13.08 20.632V19.176C11.96 19.064 10.904 18.76 9.976 18.248V15.56C11.016 16.184 12.632 16.648 13.736 16.648C14.712 16.648 15.24 16.344 15.24 15.752C15.24 14.008 10.04 15.256 10.04 10.968C10.04 9.192 11.16 8.024 13.128 7.72V6.296H15.192V7.688C16.168 7.784 17.08 8.04 18.024 8.472V11.08C16.824 10.488 15.576 10.184 14.552 10.184C13.688 10.184 13.24 10.456 13.24 10.984C13.24 12.744 18.456 11.448 18.456 15.736C18.456 17.56 17.256 18.776 15.16 19.112V20.632H13.08Z" fill="white"/>
</svg>
