<svg width="156" height="28" viewBox="0 0 156 28" fill="none" xmlns="http://www.w3.org/2000/svg">
<path d="M14.5 0L27.0574 7V21L14.5 28L1.94263 21V7L14.5 0Z" fill="#4153EF"/>
<path d="M13.08 20.632V19.176C11.96 19.064 10.904 18.76 9.976 18.248V15.56C11.016 16.184 12.632 16.648 13.736 16.648C14.712 16.648 15.24 16.344 15.24 15.752C15.24 14.008 10.04 15.256 10.04 10.968C10.04 9.192 11.16 8.024 13.128 7.72V6.296H15.192V7.688C16.168 7.784 17.08 8.04 18.024 8.472V11.08C16.824 10.488 15.576 10.184 14.552 10.184C13.688 10.184 13.24 10.456 13.24 10.984C13.24 12.744 18.456 11.448 18.456 15.736C18.456 17.56 17.256 18.776 15.16 19.112V20.632H13.08Z" fill="white"/>
<path d="M35.248 19V7.8H41.216C43.152 7.8 44.464 8.984 44.464 10.728C44.464 11.848 43.92 12.696 42.912 13.16C44.112 13.624 44.816 14.616 44.816 15.912C44.816 17.736 43.424 19 41.392 19H35.248ZM38.48 16.824H40.144C41.056 16.824 41.584 16.376 41.584 15.624C41.584 14.888 41.056 14.424 40.144 14.424H38.48V16.824ZM38.48 12.264H40.048C40.896 12.264 41.392 11.816 41.392 11.128C41.392 10.424 40.896 9.976 40.048 9.976H38.48V12.264ZM50.9366 19.208C48.3286 19.208 46.6006 17.624 46.6006 15.192V10.744H49.6406V15.048C49.6406 16.072 50.1046 16.648 50.9366 16.648C51.7526 16.648 52.2166 16.072 52.2166 15.048V10.744H55.2566V15.192C55.2566 17.624 53.5286 19.208 50.9366 19.208ZM61.0188 19.176C58.6028 19.176 56.8908 17.4 56.8908 14.872C56.8908 12.36 58.5548 10.568 60.8908 10.568C61.7868 10.568 62.5708 10.824 63.2108 11.272V7.8H66.2508V19H64.6348L63.8668 18.104C63.1468 18.776 62.1548 19.176 61.0188 19.176ZM59.8988 14.872C59.8988 15.944 60.5868 16.648 61.6428 16.648C62.6988 16.648 63.3868 15.944 63.3868 14.872C63.3868 13.8 62.6988 13.096 61.6428 13.096C60.5868 13.096 59.8988 13.8 59.8988 14.872ZM72.351 22.488C71.199 22.488 70.015 22.28 68.895 21.896V19.48C69.951 19.864 71.023 20.072 71.967 20.072C73.583 20.072 74.495 19.448 74.495 18.36V18.136C73.823 18.68 72.975 18.984 71.999 18.984C69.679 18.984 68.047 17.224 68.047 14.776C68.047 12.296 69.727 10.568 72.143 10.568C73.295 10.568 74.287 10.968 75.007 11.656L75.743 10.744H77.375V18.152C77.375 20.936 75.567 22.488 72.351 22.488ZM71.055 14.84C71.055 15.912 71.743 16.6 72.783 16.6C73.823 16.6 74.511 15.912 74.511 14.84C74.511 13.784 73.823 13.096 72.783 13.096C71.743 13.096 71.055 13.784 71.055 14.84ZM84.34 19.208C81.204 19.208 79.156 17.496 79.156 14.872C79.156 12.328 81.06 10.536 83.78 10.536C86.948 10.536 88.836 12.856 88.324 15.832H82.212C82.516 16.52 83.412 16.904 84.756 16.904C85.652 16.904 86.596 16.728 87.604 16.376V18.648C86.452 19.016 85.38 19.208 84.34 19.208ZM82.148 14.056H85.444C85.236 13.272 84.66 12.824 83.812 12.824C82.948 12.824 82.34 13.304 82.148 14.056ZM94.2986 19.144C92.0906 19.144 91.0026 18.104 91.0026 16.008V13.368H89.4666V12.12L92.9066 8.6H94.0426V10.744H96.2986V13.208H94.0426V15.528C94.0426 16.28 94.3786 16.616 95.1946 16.616C95.5626 16.616 95.9626 16.552 96.3946 16.408V18.856C95.6426 19.048 94.9546 19.144 94.2986 19.144ZM101.857 19V7.8H107.825C109.761 7.8 111.073 8.984 111.073 10.728C111.073 11.848 110.529 12.696 109.521 13.16C110.721 13.624 111.425 14.616 111.425 15.912C111.425 17.736 110.033 19 108.001 19H101.857ZM105.089 16.824H106.753C107.665 16.824 108.193 16.376 108.193 15.624C108.193 14.888 107.665 14.424 106.753 14.424H105.089V16.824ZM105.089 12.264H106.657C107.505 12.264 108.001 11.816 108.001 11.128C108.001 10.424 107.505 9.976 106.657 9.976H105.089V12.264ZM117.546 19.208C114.938 19.208 113.21 17.624 113.21 15.192V10.744H116.25V15.048C116.25 16.072 116.714 16.648 117.546 16.648C118.362 16.648 118.826 16.072 118.826 15.048V10.744H121.866V15.192C121.866 17.624 120.138 19.208 117.546 19.208ZM127.628 19.176C125.212 19.176 123.5 17.4 123.5 14.872C123.5 12.36 125.164 10.568 127.5 10.568C128.396 10.568 129.18 10.824 129.82 11.272V7.8H132.86V19H131.244L130.476 18.104C129.756 18.776 128.764 19.176 127.628 19.176ZM126.508 14.872C126.508 15.944 127.196 16.648 128.252 16.648C129.308 16.648 129.996 15.944 129.996 14.872C129.996 13.8 129.308 13.096 128.252 13.096C127.196 13.096 126.508 13.8 126.508 14.872ZM138.784 19.176C136.368 19.176 134.656 17.4 134.656 14.872C134.656 12.36 136.32 10.568 138.656 10.568C139.552 10.568 140.336 10.824 140.976 11.272V7.8H144.016V19H142.4L141.632 18.104C140.912 18.776 139.92 19.176 138.784 19.176ZM137.664 14.872C137.664 15.944 138.352 16.648 139.408 16.648C140.464 16.648 141.152 15.944 141.152 14.872C141.152 13.8 140.464 13.096 139.408 13.096C138.352 13.096 137.664 13.8 137.664 14.872ZM147.189 21.944L148.677 18.696L145.429 10.744H148.629L150.261 15.144L151.877 10.744H155.077L150.453 21.944H147.189Z" fill="black"/>
</svg>
