<svg width="117" height="324" viewBox="0 0 117 324" fill="none" xmlns="http://www.w3.org/2000/svg">
<path d="M74.8099 19.447C74.8099 8.70401 65.335 0 51.127 0C39.319 0 35.2609 6.51601 35.2609 6.51601C35.2609 6.51601 24.1 8.928 24.1 22.797C24.1 35.689 24.1 57.87 24.1 57.87H42.439H43.3739H56.918H71.6409V28.986C72.8049 27.557 74.8099 24.38 74.8099 19.447ZM52.757 50.856C51.764 50.856 50.68 50.673 49.549 50.354V57.869H33.3219V38.535C33.2109 38.225 33.102 37.893 32.996 37.544C25.802 36.857 26.0999 24.968 30.3749 24.968C30.4329 24.968 30.4899 24.973 30.5459 24.981V24.98C48.5159 30.725 60.6009 21.312 64.5549 14.772C64.5549 19.336 69.606 23.786 71.403 24.192C71.136 40.502 59.468 50.856 52.757 50.856Z" fill="#311643"/>
<path d="M49.548 51.389V50.354C50.679 50.673 51.7629 50.856 52.7559 50.856C59.4679 50.856 71.1359 40.502 71.4009 24.191C69.6039 23.785 64.553 19.335 64.553 14.771C60.599 21.312 48.5139 30.724 30.5439 24.979V24.98C30.4879 24.972 30.4319 24.967 30.3729 24.967C26.0979 24.967 25.7999 36.856 32.9939 37.543C33.0999 37.892 33.2089 38.224 33.3199 38.534V51.54L20.611 57.531V73.217H62.8439V57.382L49.548 51.389Z" fill="#FCBEB7"/>
<path d="M62.845 73.218V57.3829L49.548 51.389V50.354C45.788 49.293 41.514 46.723 38.376 44.325L62.845 73.218Z" fill="#F9AFAB"/>
<path d="M40.882 37.9619C43.3269 37.9619 45.309 35.9799 45.309 33.5349C45.309 31.0899 43.3269 29.1079 40.882 29.1079C38.437 29.1079 36.455 31.0899 36.455 33.5349C36.455 35.9799 38.437 37.9619 40.882 37.9619Z" fill="#F49795"/>
<path d="M70.8319 29.8599C70.2709 32.8329 69.33 35.5439 68.142 37.9559C65.801 37.8399 63.939 35.9049 63.939 33.5349C63.939 31.0899 65.9209 29.1089 68.3649 29.1089C69.2779 29.1079 70.1269 29.3849 70.8319 29.8599Z" fill="#F49795"/>
<path d="M63.3439 20.072C60.1119 20.072 57.4429 22.529 57.1069 25.674C55.3499 24.847 53.799 25.295 52.98 25.671C52.642 22.528 49.9749 20.072 46.7439 20.072C43.2849 20.072 40.4709 22.886 40.4709 26.345C40.4709 29.804 43.2849 32.618 46.7439 32.618C50.1259 32.618 52.8899 29.928 53.0109 26.575C53.5319 26.275 55.1869 25.511 57.0769 26.582C57.2019 29.931 59.9649 32.618 63.3439 32.618C66.8029 32.618 69.6169 29.804 69.6169 26.345C69.6179 22.886 66.8039 20.072 63.3439 20.072ZM46.7439 31.797C43.7379 31.797 41.2909 29.351 41.2909 26.345C41.2909 23.338 43.7369 20.892 46.7439 20.892C49.7509 20.892 52.1969 23.338 52.1969 26.345C52.1969 29.351 49.7509 31.797 46.7439 31.797ZM63.3439 31.797C60.3379 31.797 57.8909 29.351 57.8909 26.345C57.8909 23.338 60.3369 20.892 63.3439 20.892C66.3509 20.892 68.7969 23.338 68.7969 26.345C68.7969 29.351 66.3509 31.797 63.3439 31.797Z" fill="white"/>
<path d="M63.3489 30.8399C62.8549 30.8399 62.454 30.4389 62.454 29.9449V28.2729C62.454 27.7789 62.8549 27.3779 63.3489 27.3779C63.8429 27.3779 64.2439 27.7789 64.2439 28.2729V29.9449C64.2439 30.4389 63.8429 30.8399 63.3489 30.8399Z" fill="#311643"/>
<path d="M47.017 30.8399C46.522 30.8399 46.1219 30.4389 46.1219 29.9449V28.2729C46.1219 27.7789 46.523 27.3779 47.017 27.3779C47.511 27.3779 47.9119 27.7789 47.9119 28.2729V29.9449C47.9119 30.4389 47.511 30.8399 47.017 30.8399Z" fill="#311643"/>
<path d="M53.408 40.9889C51.81 40.9889 50.7219 40.3879 50.0629 39.8409C49.2319 39.1509 48.887 38.3979 48.872 38.3659C48.779 38.1589 48.8709 37.9159 49.0779 37.8229C49.2839 37.7299 49.5259 37.8219 49.6199 38.0269C49.6669 38.1289 50.8019 40.5079 54.0989 40.1269C54.3249 40.1009 54.528 40.2619 54.554 40.4869C54.58 40.7119 54.4189 40.9159 54.1929 40.9419C53.9179 40.9749 53.657 40.9889 53.408 40.9889Z" fill="#311643"/>
<path d="M80.246 301.405L81.9249 308.384L100.236 314.134L97.6029 301.405H80.246Z" fill="#FCBEB7"/>
<path d="M18.5509 301.405L19.0509 310.026L17.9099 310.446L17.158 314.137L35.4509 308.384L35.908 301.405H18.5509Z" fill="#FCBEB7"/>
<path d="M114.359 316.845L99.4729 310.446L100.236 314.135L81.9249 308.384V313.631C81.9249 315.476 82.8899 317.148 84.4069 318.089L85.9819 322.591C86.1179 322.98 86.4849 323.241 86.8979 323.241C87.4339 323.241 87.8679 322.807 87.8679 322.271V319.342L100.383 323.241H113.043C114.884 323.241 116.376 321.749 116.376 319.908C116.376 318.575 115.582 317.371 114.359 316.845Z" fill="#2F3D6C"/>
<path d="M35.4679 313.58L35.4519 308.333L17.158 314.138L17.9099 310.447L3.04298 316.89C1.82098 317.42 1.03093 318.626 1.03493 319.958C1.03993 321.799 2.53694 323.287 4.37794 323.281L17.038 323.244L29.9789 319.171L29.9879 322.237C29.9899 322.773 30.425 323.206 30.961 323.204C31.373 323.203 31.7399 322.941 31.8749 322.552L33.5829 317.622C34.7559 316.642 35.4719 315.175 35.4679 313.58Z" fill="#2F3D6C"/>
<path d="M21.32 125.886L14.5659 154.486C12.6159 162.745 11.847 171.24 12.284 179.715L18.5519 301.404H35.909L43.32 175.113L80.247 301.404H97.6039L67.043 125.885H21.32V125.886Z" fill="#6277D7"/>
<path d="M44.2859 65.4811C47.3679 65.4811 49.8329 62.5131 51.4949 59.5071H33.9189C36.5999 62.5051 40.2709 65.4811 44.2859 65.4811Z" fill="white"/>
<path d="M74.577 67.8741C72.397 63.5151 68.7759 60.0431 64.3279 58.0481L53.898 53.3701C53.898 53.8601 53.046 56.7001 51.494 59.5071C49.832 62.5131 47.367 65.4811 44.285 65.4811C40.27 65.4811 36.599 62.5051 33.918 59.5071C31.198 56.4651 29.499 53.4011 29.499 53.4011L17.398 59.0081C12.445 61.3031 8.79802 65.7181 7.48102 71.0161L0.40802 99.4581C-0.74498 104.096 0.583006 109 3.91901 112.422C9.48801 110.468 19.944 106.398 19.944 106.398L21.3179 125.887H67.04L78.399 75.5191L74.577 67.8741Z" fill="#FE9ECC"/>
<path d="M44.7379 69.7569C42.1959 69.7569 39.6099 68.9829 37.0499 67.4579C35.0179 66.2469 32.9979 64.5619 31.0459 62.4479C27.7329 58.8609 25.7149 55.1999 25.6949 55.1639L26.3739 54.8489C26.3939 54.8849 28.35 58.4339 31.605 61.9529C33.507 64.0109 35.47 65.6479 37.439 66.8199C39.879 68.2729 42.3349 69.0089 44.7379 69.0089C47.0059 69.0089 49.0489 68.2519 50.8099 66.7599C52.2349 65.5519 53.4849 63.8609 54.5239 61.7339C56.3099 58.0789 56.798 54.7079 56.803 54.6709L57.5059 54.9859C57.4839 55.1409 57.0359 58.2859 55.2019 62.0459C54.1179 64.2699 52.8049 66.0449 51.2999 67.3229C49.3979 68.9389 47.1909 69.7569 44.7379 69.7569Z" fill="white"/>
<path d="M71.9829 222.996C76.5713 222.996 80.2909 219.276 80.2909 214.688C80.2909 210.099 76.5713 206.38 71.9829 206.38C67.3945 206.38 63.6749 210.099 63.6749 214.688C63.6749 219.276 67.3945 222.996 71.9829 222.996Z" fill="#4A5EA3"/>
<path d="M28.4559 222.996C33.0443 222.996 36.7639 219.276 36.7639 214.688C36.7639 210.099 33.0443 206.38 28.4559 206.38C23.8676 206.38 20.1479 210.099 20.1479 214.688C20.1479 219.276 23.8676 222.996 28.4559 222.996Z" fill="#4A5EA3"/>
<path d="M17.4709 62.7011C17.4709 65.6311 15.0959 68.0081 12.1639 68.0081C10.9869 68.0081 9.8999 67.6251 9.0199 66.9761C10.6739 63.8301 13.234 61.2201 16.403 59.5081C17.074 60.3961 17.4709 61.5021 17.4709 62.7011Z" fill="#FF78BA"/>
<path d="M48.5208 132.469L83.7049 131.14C85.5539 131.07 87.1529 129.833 87.6839 128.061L103.067 76.7819C103.394 75.6929 102.552 74.6059 101.416 74.6479L65.8349 75.9919C64.2239 76.0529 62.8309 77.1309 62.3669 78.6749L46.8698 130.335C46.5428 131.425 47.3838 132.512 48.5208 132.469Z" fill="#4A5EA3"/>
<path d="M86.4379 105.535L92.5939 111.694L93.6439 108.194L86.4379 105.535Z" fill="#2F3D6C"/>
<path d="M94.9849 96L86.1149 96.586C85.4599 96.629 84.9529 97.177 84.9589 97.833L84.0769 97.888C83.5039 97.924 83.0379 98.364 82.9709 98.935L82.8619 99.857H82.8579C82.2019 99.865 81.6759 100.404 81.6849 101.06C81.6909 101.542 81.9869 101.972 82.4349 102.15L84.4199 102.939C84.4159 103.951 85.0029 104.872 85.9209 105.296L92.0939 108.15C92.9909 108.565 93.9869 108.717 94.9659 108.59C97.1679 108.304 98.9499 106.661 99.4139 104.49L99.798 102.694C100.211 100.759 99.6119 98.747 98.2069 97.355C97.3479 96.503 96.1929 96.018 94.9849 96Z" fill="#FCBEB7"/>
<path d="M50.8959 61.789L56.949 76.585C57.291 77.42 57.7899 78.176 58.4049 78.789L59.4819 79.862C59.7319 80.111 60.0809 79.968 60.0849 79.615L60.1009 78.095C60.1099 77.226 59.9359 76.337 59.5949 75.502L53.5418 60.706C53.1738 59.806 52.2829 59.318 51.5519 59.617C50.8209 59.917 50.5269 60.889 50.8959 61.789Z" fill="#6277D7"/>
<path d="M58.8539 70.603L55.5309 66.026C55.1029 65.436 54.4399 65.06 53.7139 64.994L48.1409 64.489C47.3819 64.42 46.628 64.664 46.053 65.164L43.1499 67.687C42.7309 68.051 42.375 68.482 42.096 68.962L38.534 74.614L4.76296 101.899C1.43096 104.591 1.13697 109.565 4.12697 112.631C7.10097 115.681 12.0469 115.532 14.8329 112.31L43.3519 79.324L49.35 75.636L53.777 75.788C54.806 75.823 55.7119 75.118 55.9309 74.112L56.174 73.824C56.593 73.327 56.7629 72.666 56.6339 72.029L56.3809 70.78L57.8119 71.704C58.0209 71.839 58.282 71.865 58.513 71.774C58.982 71.59 59.1509 71.012 58.8539 70.603Z" fill="#FCBEB7"/>
<path d="M19.9459 106.397L32.4419 91.9429L20.4209 113.135L19.9459 106.397Z" fill="#FF78BA"/>
<path d="M48.5209 132.469L69.178 138.158L68.059 131.731L48.5209 132.469Z" fill="#2F3D6C"/>
<path d="M72.7319 64.8499C72.0789 65.1219 71.3619 65.2719 70.6099 65.2719C67.5619 65.2719 65.0909 62.8009 65.0909 59.7529C65.0909 59.3159 65.1419 58.8909 65.2379 58.4829C68.2129 59.9909 70.7779 62.1769 72.7319 64.8499Z" fill="#FF78BA"/>
<path d="M9.48987 113.715C12.3247 113.715 14.6229 111.417 14.6229 108.582C14.6229 105.747 12.3247 103.449 9.48987 103.449C6.65499 103.449 4.35693 105.747 4.35693 108.582C4.35693 111.417 6.65499 113.715 9.48987 113.715Z" fill="#F9AFAB"/>
</svg>
