<svg width="25" height="25" viewBox="0 0 25 25" fill="none" xmlns="http://www.w3.org/2000/svg">
<path d="M9.37504 22.9166H15.625C20.8334 22.9166 22.9167 20.8333 22.9167 15.6249V9.37492C22.9167 4.16659 20.8334 2.08325 15.625 2.08325H9.37504C4.16671 2.08325 2.08337 4.16659 2.08337 9.37492V15.6249C2.08337 20.8333 4.16671 22.9166 9.37504 22.9166Z" stroke="black" stroke-width="1.5" stroke-linecap="round" stroke-linejoin="round"/>
<path d="M16.2187 19.2709V15.2084M16.2187 7.7605V5.72925M16.2187 7.7605C16.5744 7.7605 16.9266 7.83055 17.2551 7.96666C17.5837 8.10276 17.8823 8.30226 18.1338 8.55375C18.3853 8.80524 18.5848 9.10381 18.7209 9.4324C18.857 9.76099 18.927 10.1132 18.927 10.4688C18.927 10.8245 18.857 11.1767 18.7209 11.5053C18.5848 11.8339 18.3853 12.1324 18.1338 12.3839C17.8823 12.6354 17.5837 12.8349 17.2551 12.971C16.9266 13.1071 16.5744 13.1772 16.2187 13.1772C15.5004 13.1772 14.8115 12.8918 14.3036 12.3839C13.7957 11.876 13.5104 11.1871 13.5104 10.4688C13.5104 9.75054 13.7957 9.06166 14.3036 8.55375C14.8115 8.04584 15.5004 7.7605 16.2187 7.7605ZM8.78121 19.2709V17.2397M8.78121 17.2397C9.13687 17.2397 9.48905 17.1696 9.81764 17.0335C10.1462 16.8974 10.4448 16.6979 10.6963 16.4464C10.9478 16.1949 11.1473 15.8964 11.2834 15.5678C11.4195 15.2392 11.4895 14.887 11.4895 14.5313C11.4895 14.1757 11.4195 13.8235 11.2834 13.4949C11.1473 13.1663 10.9478 12.8677 10.6963 12.6163C10.4448 12.3648 10.1462 12.1653 9.81764 12.0292C9.48905 11.8931 9.13687 11.823 8.78121 11.823C8.06291 11.823 7.37404 12.1083 6.86613 12.6163C6.35822 13.1242 6.07288 13.813 6.07288 14.5313C6.07288 15.2496 6.35822 15.9385 6.86613 16.4464C7.37404 16.9543 8.06291 17.2397 8.78121 17.2397ZM8.78121 9.79175V5.72925" stroke="black" stroke-width="1.5" stroke-miterlimit="10" stroke-linecap="round" stroke-linejoin="round"/>
</svg>
