<svg width="25" height="25" viewBox="0 0 25 25" fill="none" xmlns="http://www.w3.org/2000/svg">
<path d="M12.5 5.71884V21.3438M8.07296 8.84384H5.72921M8.85421 11.9688H5.72921M22.9167 17.4376V4.86468C22.9167 3.61468 21.8959 2.68759 20.6563 2.79176H20.5938C18.4063 2.97926 15.0834 4.09385 13.2292 5.26051L13.0521 5.37509C12.75 5.56259 12.25 5.56259 11.948 5.37509L11.6875 5.21885C9.83337 4.0626 6.52087 2.95843 4.33337 2.78135C3.09379 2.67718 2.08337 3.61468 2.08337 4.85426V17.4376C2.08337 18.4376 2.89587 19.3751 3.89587 19.5001L4.19796 19.5418C6.45837 19.8438 9.94796 20.9897 11.948 22.0834L11.9896 22.1043C12.2709 22.2605 12.7188 22.2605 12.9896 22.1043C14.9896 21.0001 18.4896 19.8438 20.7605 19.5418L21.1042 19.5001C22.1042 19.3751 22.9167 18.4376 22.9167 17.4376Z" stroke="black" stroke-width="1.5" stroke-linecap="round" stroke-linejoin="round"/>
</svg>
