<svg width="44" height="36" viewBox="0 0 44 36" fill="none" xmlns="http://www.w3.org/2000/svg">
<rect x="0.158691" width="43.1585" height="35.9654" rx="12" fill="#4153EF"/>
<path d="M19.3652 19.6437C19.3652 20.5643 20.077 21.3046 20.9502 21.3046H22.7345C23.4938 21.3046 24.1107 20.6592 24.1107 19.8525C24.1107 18.9888 23.731 18.6756 23.1711 18.4763L20.3143 17.4798C19.7544 17.2805 19.3747 16.9768 19.3747 16.1036C19.3747 15.3064 19.9916 14.6515 20.7509 14.6515H22.5352C23.4083 14.6515 24.1202 15.3918 24.1202 16.3124M21.738 13.7119V22.2537" stroke="#F5F5F5" stroke-width="1.5" stroke-linecap="round" stroke-linejoin="round"/>
<path d="M31.2288 17.9828C31.2288 23.2218 26.9769 27.4737 21.7379 27.4737C16.499 27.4737 12.2471 23.2218 12.2471 17.9828C12.2471 12.7439 16.499 8.49194 21.7379 8.49194" stroke="#F5F5F5" stroke-width="1.5" stroke-linecap="round" stroke-linejoin="round"/>
<path d="M26.4834 9.44103V13.2374M26.4834 13.2374H30.2797M26.4834 13.2374L31.2288 8.49194" stroke="#F5F5F5" stroke-width="1.5" stroke-linecap="round" stroke-linejoin="round"/>
</svg>
