<svg width="44" height="36" viewBox="0 0 44 36" fill="none" xmlns="http://www.w3.org/2000/svg">
<rect x="0.841309" width="43.1585" height="35.9654" rx="12" fill="#F0DAF7"/>
<path d="M12.8984 8.89844H14.55C15.5751 8.89844 16.3819 9.78116 16.2965 10.7968L15.5086 20.2505C15.4779 20.6167 15.5235 20.9854 15.6427 21.333C15.7619 21.6807 15.952 21.9999 16.2009 22.2702C16.4499 22.5406 16.7523 22.7563 17.089 22.9037C17.4257 23.0511 17.7893 23.1269 18.1568 23.1264H28.2654C29.6322 23.1264 30.8282 22.0064 30.9326 20.6491L31.4452 13.5304C31.5591 11.9548 30.3631 10.6734 28.778 10.6734H16.5243M19.5426 14.5934H30.9326M26.4241 27.8818C26.7387 27.8818 27.0405 27.7568 27.263 27.5343C27.4855 27.3118 27.6105 27.01 27.6105 26.6953C27.6105 26.3806 27.4855 26.0789 27.263 25.8564C27.0405 25.6339 26.7387 25.5089 26.4241 25.5089C26.1094 25.5089 25.8076 25.6339 25.5851 25.8564C25.3626 26.0789 25.2376 26.3806 25.2376 26.6953C25.2376 27.01 25.3626 27.3118 25.5851 27.5343C25.8076 27.7568 26.1094 27.8818 26.4241 27.8818ZM18.8307 27.8818C19.1454 27.8818 19.4472 27.7568 19.6697 27.5343C19.8922 27.3118 20.0172 27.01 20.0172 26.6953C20.0172 26.3806 19.8922 26.0789 19.6697 25.8564C19.4472 25.6339 19.1454 25.5089 18.8307 25.5089C18.5161 25.5089 18.2143 25.6339 17.9918 25.8564C17.7693 26.0789 17.6443 26.3806 17.6443 26.6953C17.6443 27.01 17.7693 27.3118 17.9918 27.5343C18.2143 27.7568 18.5161 27.8818 18.8307 27.8818Z" stroke="black" stroke-width="1.5" stroke-miterlimit="10" stroke-linecap="round" stroke-linejoin="round"/>
</svg>
