<svg width="44" height="36" viewBox="0 0 44 36" fill="none" xmlns="http://www.w3.org/2000/svg">
<rect width="43.1585" height="35.9654" rx="12" fill="#4153EF"/>
<path d="M12.0571 8.89844H13.7087C14.7338 8.89844 15.5406 9.78116 15.4551 10.7968L14.6673 20.2505C14.6366 20.6167 14.6822 20.9854 14.8014 21.333C14.9206 21.6807 15.1106 21.9999 15.3596 22.2702C15.6086 22.5406 15.911 22.7563 16.2477 22.9037C16.5843 23.0511 16.948 23.1269 17.3155 23.1264H27.4241C28.7909 23.1264 29.9869 22.0064 30.0913 20.6491L30.6038 13.5304C30.7177 11.9548 29.5218 10.6734 27.9367 10.6734H15.6829M18.7013 14.5934H30.0913M25.5828 27.8818C25.8974 27.8818 26.1992 27.7568 26.4217 27.5343C26.6442 27.3118 26.7692 27.01 26.7692 26.6953C26.7692 26.3806 26.6442 26.0789 26.4217 25.8564C26.1992 25.6339 25.8974 25.5089 25.5828 25.5089C25.2681 25.5089 24.9663 25.6339 24.7438 25.8564C24.5213 26.0789 24.3963 26.3806 24.3963 26.6953C24.3963 27.01 24.5213 27.3118 24.7438 27.5343C24.9663 27.7568 25.2681 27.8818 25.5828 27.8818ZM17.9894 27.8818C18.3041 27.8818 18.6059 27.7568 18.8284 27.5343C19.0509 27.3118 19.1759 27.01 19.1759 26.6953C19.1759 26.3806 19.0509 26.0789 18.8284 25.8564C18.6059 25.6339 18.3041 25.5089 17.9894 25.5089C17.6748 25.5089 17.373 25.6339 17.1505 25.8564C16.928 26.0789 16.803 26.3806 16.803 26.6953C16.803 27.01 16.928 27.3118 17.1505 27.5343C17.373 27.7568 17.6748 27.8818 17.9894 27.8818Z" stroke="white" stroke-width="1.5" stroke-miterlimit="10" stroke-linecap="round" stroke-linejoin="round"/>
</svg>
