<svg width="44" height="36" viewBox="0 0 44 36" fill="none" xmlns="http://www.w3.org/2000/svg">
<rect width="43.1585" height="35.9654" rx="12" fill="#4859EF"/>
<path d="M11.9961 14.5H21.4961M15.9961 22.5H17.9961M20.4961 22.5H24.4961" stroke="#F5F5F5" stroke-width="1.5" stroke-miterlimit="10" stroke-linecap="round" stroke-linejoin="round"/>
<path d="M31.9961 18.03V22.11C31.9961 25.62 31.1061 26.5 27.5561 26.5H16.4361C12.8861 26.5 11.9961 25.62 11.9961 22.11V13.89C11.9961 10.38 12.8861 9.5 16.4361 9.5H24.4961" stroke="#F5F5F5" stroke-width="1.5" stroke-linecap="round" stroke-linejoin="round"/>
<path d="M29.0764 10.1301L25.3664 13.8401C25.2264 13.9801 25.0864 14.2601 25.0564 14.4601L24.8564 15.8801C24.7864 16.3901 25.1464 16.7501 25.6564 16.6801L27.0764 16.4801C27.2764 16.4501 27.5564 16.3101 27.6964 16.1701L31.4064 12.4601C32.0464 11.8201 32.3464 11.0801 31.4064 10.1401C30.4564 9.19006 29.7164 9.49006 29.0764 10.1301Z" stroke="#F5F5F5" stroke-width="1.5" stroke-miterlimit="10" stroke-linecap="round" stroke-linejoin="round"/>
<path d="M28.5459 10.6599C28.8659 11.7899 29.7459 12.6699 30.8659 12.9799" stroke="#F5F5F5" stroke-width="1.5" stroke-miterlimit="10" stroke-linecap="round" stroke-linejoin="round"/>
</svg>
