<svg width="9" height="12" viewBox="0 0 9 12" fill="none" xmlns="http://www.w3.org/2000/svg">
<path d="M4.35 11.15C3.57 11.15 2.91 11.045 2.37 10.835C1.83 10.625 1.415 10.315 1.125 9.905C0.845 9.485 0.705 8.955 0.705 8.315C0.705 8.125 0.72 7.945 0.75 7.775C0.78 7.595 0.82 7.43 0.87 7.28H0.165V6.32H1.425C1.625 6.12 1.89 5.94 2.22 5.78C2.56 5.61 2.91 5.46 3.27 5.33C3.64 5.2 3.965 5.09 4.245 5C4.525 4.9 4.705 4.83 4.785 4.79H0.165V3.83H5.895C5.975 3.69 6.03 3.545 6.06 3.395C6.1 3.245 6.12 3.055 6.12 2.825C6.12 2.515 6.05 2.25 5.91 2.03C5.77 1.8 5.555 1.625 5.265 1.505C4.975 1.385 4.6 1.325 4.14 1.325C3.81 1.325 3.49 1.355 3.18 1.415C2.88 1.475 2.595 1.555 2.325 1.655C2.065 1.745 1.82 1.845 1.59 1.955L1.215 0.769999C1.595 0.589999 2.06 0.439999 2.61 0.32C3.16 0.2 3.695 0.139999 4.215 0.139999C4.895 0.139999 5.475 0.234999 5.955 0.424999C6.445 0.604999 6.82 0.879999 7.08 1.25C7.35 1.62 7.485 2.09 7.485 2.66C7.485 2.87 7.47 3.08 7.44 3.29C7.41 3.49 7.355 3.67 7.275 3.83H8.1V4.79H6.795C6.635 4.95 6.385 5.115 6.045 5.285C5.705 5.445 5.35 5.595 4.98 5.735C4.61 5.875 4.275 5.995 3.975 6.095C3.675 6.195 3.48 6.27 3.39 6.32H8.1V7.28H2.265C2.185 7.43 2.13 7.57 2.1 7.7C2.07 7.83 2.055 8.01 2.055 8.24C2.055 8.63 2.145 8.955 2.325 9.215C2.505 9.465 2.775 9.655 3.135 9.785C3.495 9.915 3.94 9.98 4.47 9.98C5.04 9.98 5.59 9.91 6.12 9.77C6.66 9.62 7.11 9.465 7.47 9.305V10.52C7.13 10.68 6.675 10.825 6.105 10.955C5.535 11.085 4.95 11.15 4.35 11.15Z" fill="#BEC4FF"/>
</svg>
